<svg width="148" height="48" viewBox="0 0 148 48" fill="none" xmlns="http://www.w3.org/2000/svg">
<g clip-path="url(#clip0_1920_83)">
<path d="M21.8156 7.23831L11.8828 30.7033C11.877 30.7191 11.8691 30.7329 11.8613 30.7488L14.2755 25.0482L5.57234 7.23633H0L11.8163 30.8477C11.2817 32.0483 10.616 32.9008 9.81719 33.3973C8.98506 33.9116 8.03741 34.1687 6.97228 34.1687C5.85625 34.1687 4.84986 34.0164 3.95311 33.7098C3.05637 33.4032 2.11459 32.9166 1.12778 32.2481V36.3821C2.03627 36.9933 3.01721 37.4739 4.06863 37.8221C5.12006 38.1702 6.29483 38.3443 7.59491 38.3443C8.73836 38.3443 9.80936 38.1484 10.8099 37.7588C11.8084 37.3691 12.7306 36.75 13.5765 35.9014C14.4204 35.0529 15.1546 33.9313 15.7772 32.5408L27.1921 7.23831H21.8156Z" fill="white"/>
<path d="M48.7433 13.4551C47.8016 11.4119 46.4701 9.8255 44.7491 8.69607C43.0281 7.56861 40.9918 7.00488 38.6383 7.00488C36.2849 7.00488 34.1996 7.50334 32.3787 8.49827C30.5578 9.4932 29.1344 10.8738 28.1065 12.6382C27.0785 14.4046 26.5656 16.4538 26.5656 18.7898C26.5656 21.1535 27.1099 23.2225 28.2004 25.0007C29.2891 26.7789 30.7889 28.1655 32.6959 29.1624C34.603 30.1573 36.7822 30.6558 39.2335 30.6558C41.1406 30.6558 43.0163 30.3512 44.8607 29.74C46.7051 29.1288 48.2715 28.294 49.5598 27.2319V23.4895C48.2715 24.4726 46.7854 25.2361 45.1015 25.778C43.4177 26.322 41.771 26.5949 40.1616 26.5949C38.3779 26.5949 36.837 26.2706 35.5369 25.6198C34.2368 24.969 33.2344 24.0334 32.5275 22.813C32.1516 22.1623 31.8775 21.4442 31.7013 20.6629H50.1531C50.155 17.9017 49.6831 15.4984 48.7433 13.4551ZM31.6327 16.7188C31.7757 15.9276 32.0106 15.1977 32.3611 14.549C32.9563 13.4472 33.7787 12.5927 34.832 11.9815C35.8835 11.3703 37.117 11.0657 38.5287 11.0657C39.866 11.0657 41.0231 11.3505 42.0021 11.9222C42.9791 12.4938 43.7603 13.3088 44.3418 14.3709C44.7197 15.0613 44.9801 15.8505 45.1426 16.7208H31.6327V16.7188Z" fill="white"/>
<path d="M58.96 -0.000976562H54.1297V30.6579H58.96V-0.000976562Z" fill="white"/>
<path d="M67.8706 -0.000976562H63.0403V30.6579H67.8706V-0.000976562Z" fill="white"/>
<path d="M142.982 7.23633L136.35 25.424L129.854 7.23633H124.835L118.214 25.3033L111.592 7.23633H106.495L115.261 30.6578H120.395L127.312 12.3178L134.063 30.6578H139.199L148 7.23633H142.982Z" fill="white"/>
<path d="M100.431 8.77954C98.8749 7.9745 97.1127 7.49583 95.143 7.34352C91.7185 7.31781 88.2529 7.29803 84.7032 7.29011C84.5779 7.28418 84.4584 7.28418 84.3331 7.28418C84.104 7.28418 83.8789 7.29011 83.6596 7.29605C83.4834 7.30198 83.3111 7.31583 83.1368 7.3277C81.0751 7.46418 79.2365 7.94285 77.6251 8.77954C75.7044 9.77052 74.2066 11.1512 73.1316 12.9195C72.0567 14.6819 71.5144 16.7469 71.5144 19.1067C71.5144 21.4446 72.0567 23.5037 73.1316 25.278C74.2066 27.0562 75.7044 28.4448 77.6251 29.4397C79.2385 30.2764 81.077 30.7551 83.1368 30.8915C83.3111 30.9034 83.4814 30.9173 83.6596 30.9232C83.8789 30.9291 84.104 30.9351 84.3331 30.9351C84.4584 30.9351 84.5779 30.9351 84.7032 30.9291C88.2529 30.9232 91.7205 30.9034 95.143 30.8757C97.1107 30.7234 98.8749 30.2467 100.431 29.4397C102.352 28.4448 103.85 27.0562 104.925 25.278C106.006 23.5037 106.542 21.4446 106.542 19.1067C106.542 16.7449 106.004 14.6819 104.925 12.9195C103.852 11.1531 102.352 9.77052 100.431 8.77954ZM100.672 23.2308C100.03 24.3839 99.1216 25.278 97.9429 25.9169C97.1225 26.3619 96.1885 26.6507 95.1449 26.7833C91.7792 26.8268 88.3058 26.8525 84.7051 26.8624C84.5857 26.8742 84.4604 26.8742 84.3351 26.8742C84.106 26.8742 83.8808 26.8683 83.6615 26.8525C83.4814 26.8426 83.313 26.8169 83.1388 26.7991C82.0227 26.6804 81.0183 26.3936 80.1313 25.9189C78.9468 25.282 78.0285 24.3859 77.3863 23.2328C76.7382 22.0736 76.421 20.7049 76.421 19.1086C76.421 17.5203 76.7402 16.1436 77.3863 14.9904C78.0285 13.8313 78.9468 12.9373 80.1313 12.2984C81.0163 11.8296 82.0227 11.5428 83.1388 11.4241C83.313 11.4063 83.4814 11.3806 83.6615 11.3707C83.8808 11.3549 84.106 11.349 84.3351 11.349C84.4604 11.349 84.5857 11.349 84.7051 11.3608C88.3058 11.3707 91.7792 11.3984 95.1449 11.4399C96.1885 11.5725 97.1225 11.8613 97.9429 12.3004C99.1235 12.9373 100.03 13.8333 100.672 14.9924C101.32 16.1456 101.638 17.5223 101.638 19.1106C101.638 20.7029 101.32 22.0736 100.672 23.2308Z" fill="white"/>
<path d="M32.6254 45.1707C32.6254 46.1637 31.9206 46.6879 30.7517 46.6879H28.1182V41.0664H30.548C31.7169 41.0664 32.4766 41.5174 32.4766 42.5281C32.4766 43.1453 32.179 43.5765 31.6974 43.802C32.2926 44.0294 32.6254 44.4784 32.6254 45.1707ZM29.0287 43.4281H30.55C31.2549 43.4281 31.5329 43.2026 31.5329 42.6231C31.5329 42.1167 31.2 41.8556 30.6244 41.8556H29.0287V43.4281ZM31.6797 45.06C31.6797 44.516 31.2725 44.1798 30.5852 44.1798H29.0267V45.9026H30.6773C31.3097 45.9026 31.6797 45.5822 31.6797 45.06Z" fill="white"/>
<path d="M34.5932 43.8793C34.5932 42.1564 35.7249 40.9756 37.3382 40.9756C38.5071 40.9756 39.4705 41.5927 39.7681 42.6628L38.8968 42.9437C38.6364 42.2316 38.0803 41.8004 37.3382 41.8004C36.2261 41.8004 35.5389 42.6233 35.5389 43.8793C35.5389 45.1353 36.2261 45.9601 37.3382 45.9601C38.0803 45.9601 38.6559 45.5289 38.9144 44.8169L39.7681 45.0977C39.4528 46.1658 38.4876 46.783 37.3382 46.783C35.7249 46.781 34.5932 45.6021 34.5932 43.8793Z" fill="white"/>
<path d="M44.2929 45.9582C45.2014 45.9582 45.7203 45.6219 46.0179 45.1887L46.6855 45.7703C46.2763 46.3142 45.5166 46.781 44.3125 46.781C42.5131 46.781 41.493 45.5448 41.493 43.8773C41.493 42.1545 42.6247 40.9736 44.2185 40.9736C45.8123 40.9736 46.852 42.1169 46.852 43.8773C46.852 43.9901 46.852 44.085 46.8324 44.178H42.4368C42.5503 45.2659 43.2376 45.9582 44.2929 45.9582ZM42.4583 43.4283H45.8886C45.7575 42.4176 45.129 41.7807 44.2205 41.7807C43.2552 41.7807 42.6071 42.4176 42.4583 43.4283Z" fill="white"/>
<path d="M58.4842 45.863V47.9993H57.6129V46.6879H53.3837V47.9993H52.5124V45.863H53.1252C53.274 45.414 53.3289 44.6268 53.3289 43.4084V41.0664H57.7617V45.863H58.4842ZM56.8336 45.863V41.8932H54.2374V43.4657C54.2374 44.4587 54.163 45.2835 54.0337 45.863H56.8336Z" fill="white"/>
<path d="M65.4036 46.6879H64.4775V41.8932H61.9556V44.1026C61.9556 46.1637 61.5464 46.7254 60.5459 46.7254C60.3599 46.7254 60.1758 46.7076 60.0819 46.6879V45.8255H60.3423C60.8807 45.8255 61.0471 45.7325 61.0471 43.9899V41.0664H65.4055V46.6879H65.4036Z" fill="white"/>
<path d="M72.2662 46.6879H71.3401V44.4784H69.9872L68.5598 46.6879H67.5025L69.0239 44.3459C68.319 44.1204 67.8922 43.5587 67.8922 42.8288C67.8922 41.7785 68.6714 41.0664 69.8579 41.0664H72.2682V46.6879H72.2662ZM71.3382 43.7486V41.8734H69.9284C69.2236 41.8734 68.8163 42.2295 68.8163 42.7912C68.8163 43.3906 69.2236 43.7486 69.9284 43.7486H71.3382Z" fill="white"/>
<path d="M83.2484 41.8932H81.2082V46.6898H80.2801V41.8932H78.24V41.0684H83.2484V41.8932Z" fill="white"/>
<path d="M87.4052 45.9582C88.3136 45.9582 88.8325 45.6219 89.1282 45.1887L89.7958 45.7703C89.3866 46.3142 88.6289 46.781 87.4228 46.781C85.6234 46.781 84.6033 45.5448 84.6033 43.8773C84.6033 42.1545 85.735 40.9736 87.3288 40.9736C88.9226 40.9736 89.9622 42.1169 89.9622 43.8773C89.9622 43.9901 89.9622 44.085 89.9446 44.178H85.549C85.6626 45.2659 86.3459 45.9582 87.4052 45.9582ZM85.5686 43.4283H88.9989C88.8697 42.4176 88.2392 41.7807 87.3307 41.7807C86.3655 41.7807 85.7174 42.4176 85.5686 43.4283Z" fill="white"/>
<path d="M95.6384 46.6878L94.025 44.4586L92.3745 46.6878H91.28L93.4494 43.8217L91.4092 41.0684H92.5409L94.0622 43.1492L95.6012 41.0684H96.6761L94.6359 43.8039L96.7681 46.6878H95.6384Z" fill="white"/>
<path d="M103.744 41.0684V46.6898H102.818V44.2549H99.8499V46.6898H98.9238V41.0684H99.8499V43.3925H102.818V41.0684H103.744Z" fill="white"/>
<path d="M106.119 43.8793C106.119 42.1564 107.269 40.9756 108.902 40.9756C110.589 40.9756 111.684 42.1189 111.684 43.8793C111.684 45.6021 110.535 46.783 108.902 46.783C107.214 46.781 106.119 45.6397 106.119 43.8793ZM110.736 43.8793C110.736 42.6233 110.014 41.8004 108.902 41.8004C107.789 41.8004 107.065 42.6233 107.065 43.8793C107.065 45.1353 107.789 45.9601 108.902 45.9601C110.014 45.9582 110.736 45.1333 110.736 43.8793Z" fill="white"/>
<path d="M118.045 41.8932H116.005V46.6898H115.079V41.8932H113.039V41.0684H118.045V41.8932Z" fill="white"/>
<path d="M122.202 45.9582C123.11 45.9582 123.629 45.6219 123.925 45.1887L124.593 45.7703C124.183 46.3142 123.426 46.781 122.22 46.781C120.42 46.781 119.4 45.5448 119.4 43.8773C119.4 42.1545 120.532 40.9736 122.126 40.9736C123.719 40.9736 124.759 42.1169 124.759 43.8773C124.759 43.9901 124.759 44.085 124.741 44.178H120.346C120.457 45.2659 121.145 45.9582 122.202 45.9582ZM120.365 43.4283H123.796C123.667 42.4176 123.036 41.7807 122.128 41.7807C121.164 41.7807 120.514 42.4176 120.365 43.4283Z" fill="white"/>
<path d="M129.437 46.7812C127.806 46.7812 126.768 45.5251 126.768 43.5966C126.768 41.3674 127.508 40.2637 129.233 39.9057L130.551 39.6248C130.754 39.5872 130.866 39.4745 130.901 39.2312L130.921 39.0986L131.81 39.2668L131.792 39.4349C131.755 39.9769 131.42 40.3329 130.827 40.4852L129.231 40.8037C128.303 40.9916 127.766 41.5533 127.655 42.4889C128.064 41.9094 128.787 41.5909 129.675 41.5909C131.028 41.5909 132.031 42.6768 132.049 44.1761C132.07 45.6952 130.976 46.7812 129.437 46.7812ZM131.105 44.1979C131.105 43.0922 130.437 42.3979 129.435 42.3979C128.397 42.3979 127.729 43.0724 127.729 44.1405C127.729 45.2087 128.434 45.9583 129.435 45.9583C130.439 45.9583 131.105 45.266 131.105 44.1979Z" fill="white"/>
<path d="M136.781 45.9582C137.689 45.9582 138.208 45.6219 138.504 45.1887L139.172 45.7703C138.762 46.3142 138.005 46.781 136.799 46.781C134.999 46.781 133.979 45.5448 133.979 43.8773C133.979 42.1545 135.111 40.9736 136.705 40.9736C138.298 40.9736 139.338 42.1169 139.338 43.8773C139.338 43.9901 139.338 44.085 139.32 44.178H134.925C135.036 45.2659 135.724 45.9582 136.781 45.9582ZM134.944 43.4283H138.375C138.245 42.4176 137.615 41.7807 136.707 41.7807C135.741 41.7807 135.091 42.4176 134.944 43.4283Z" fill="white"/>
</g>
<defs>
<clipPath id="clip0_1920_83">
<rect width="148" height="48" fill="white"/>
</clipPath>
</defs>
</svg>
